<svg width="200" height="200" viewBox="0 0 200 200" fill="none" xmlns="http://www.w3.org/2000/svg">
  <!-- Background circle with gradient -->
  <defs>
    <linearGradient id="logoGradient" x1="0%" y1="0%" x2="100%" y2="100%">
      <stop offset="0%" style="stop-color:#4F46E5;stop-opacity:1" />
      <stop offset="100%" style="stop-color:#7C3AED;stop-opacity:1" />
    </linearGradient>
    <linearGradient id="accentGradient" x1="0%" y1="0%" x2="100%" y2="100%">
      <stop offset="0%" style="stop-color:#10B981;stop-opacity:1" />
      <stop offset="100%" style="stop-color:#059669;stop-opacity:1" />
    </linearGradient>
  </defs>
  
  <!-- Main circle background -->
  <circle cx="100" cy="100" r="90" fill="url(#logoGradient)" opacity="0.1"/>
  <circle cx="100" cy="100" r="80" fill="url(#logoGradient)"/>
  
  <!-- Prosperity/Growth symbol - upward trending lines with circle -->
  <!-- Base circle -->
  <circle cx="100" cy="120" r="25" fill="url(#accentGradient)" opacity="0.2"/>
  
  <!-- Upward trending bars representing growth -->
  <rect x="70" y="110" width="12" height="30" rx="6" fill="url(#accentGradient)"/>
  <rect x="88" y="100" width="12" height="40" rx="6" fill="url(#accentGradient)"/>
  <rect x="106" y="90" width="12" height="50" rx="6" fill="url(#accentGradient)"/>
  <rect x="124" y="105" width="12" height="35" rx="6" fill="url(#accentGradient)"/>
  
  <!-- Central prosperity symbol - stylized "S" or prosperity mark -->
  <path d="M 100 60 Q 85 70 85 85 Q 85 100 100 110 Q 115 100 115 85 Q 115 70 100 60" 
        stroke="white" 
        stroke-width="4" 
        fill="none" 
        stroke-linecap="round"/>
  
  <!-- Small accent dots -->
  <circle cx="100" cy="75" r="3" fill="white"/>
  <circle cx="100" cy="95" r="3" fill="white"/>
</svg>

